<svg id="visual" viewBox="0 0 900 600" width="900" height="600" xmlns="http://www.w3.org/2000/svg" xmlns:xlink="http://www.w3.org/1999/xlink" version="1.1"><rect width="900" height="600" fill="#ffffff"></rect><g><g transform="translate(292 288)"><path d="M36.4 0.7C36.4 19.9 18.2 39.8 -0.1 39.8C-18.3 39.8 -36.6 19.9 -36.6 0.7C-36.6 -18.4 -18.3 -36.9 -0.1 -36.9C18.2 -36.9 36.4 -18.4 36.4 0.7Z" stroke="#FFA500" fill="none" stroke-width="9"></path></g><g transform="translate(893 261)"><path d="M24.3 0.5C24.3 13 12.1 26 -0.5 26C-13.1 26 -26.1 13 -26.1 0.5C-26.1 -11.9 -13.1 -23.8 -0.5 -23.8C12.1 -23.8 24.3 -11.9 24.3 0.5Z" stroke="#FFA500" fill="none" stroke-width="9"></path></g><g transform="translate(48 454)"><path d="M27.6 -0.5C27.6 14 13.8 27.9 0.1 27.9C-13.6 27.9 -27.1 14 -27.1 -0.5C-27.1 -15 -13.6 -29.9 0.1 -29.9C13.8 -29.9 27.6 -15 27.6 -0.5Z" stroke="#FFA500" fill="none" stroke-width="9"></path></g><g transform="translate(591 528)"><path d="M31.2 -0.2C31.2 15 15.6 30 0.1 30C-15.4 30 -30.8 15 -30.8 -0.2C-30.8 -15.4 -15.4 -30.8 0.1 -30.8C15.6 -30.8 31.2 -15.4 31.2 -0.2Z" stroke="#FFA500" fill="none" stroke-width="9"></path></g><g transform="translate(731 193)"><path d="M26.7 0C26.7 12.5 13.4 25 0.6 25C-12.2 25 -24.3 12.5 -24.3 0C-24.3 -12.6 -12.2 -25.2 0.6 -25.2C13.4 -25.2 26.7 -12.6 26.7 0Z" stroke="#FFA500" fill="none" stroke-width="9"></path></g><g transform="translate(80 293)"><path d="M27.3 -0.4C27.3 13 13.7 26 -0.1 26C-13.9 26 -27.8 13 -27.8 -0.4C-27.8 -13.7 -13.9 -27.5 -0.1 -27.5C13.7 -27.5 27.3 -13.7 27.3 -0.4Z" stroke="#FFA500" fill="none" stroke-width="9"></path></g><g transform="translate(328 446)"><path d="M23 -0.1C23 11.8 11.5 23.7 0 23.7C-11.5 23.7 -22.9 11.8 -22.9 -0.1C-22.9 -12.1 -11.5 -24.2 0 -24.2C11.5 -24.2 23 -12.1 23 -0.1Z" stroke="#FFA500" fill="none" stroke-width="9"></path></g></g></svg>